<svg width="19" height="18" viewBox="0 0 19 18" fill="none" xmlns="http://www.w3.org/2000/svg">
<g clip-path="url(#clip0_6796_3098)">
<path fill-rule="evenodd" clip-rule="evenodd" d="M16.8 0.5H1.2C1.01435 0.5 0.836301 0.57375 0.705025 0.705025C0.57375 0.836301 0.5 1.01435 0.5 1.2V16.8C0.5 17.18 0.82 17.5 1.2 17.5H9.53V11.12H7.41V8.47H9.53V6.34C9.53 4.14 10.93 3.07 12.88 3.07C13.82 3.07 14.63 3.14 14.86 3.17V5.47H13.5C12.44 5.47 12.19 5.97 12.19 6.71V8.47H14.84L14.31 11.12H12.2L12.24 17.5H16.8C16.8928 17.5013 16.9849 17.4842 17.0709 17.4496C17.157 17.415 17.2354 17.3637 17.3015 17.2985C17.3675 17.2334 17.42 17.1558 17.4558 17.0702C17.4916 16.9846 17.51 16.8928 17.51 16.8V1.2C17.51 1.01435 17.4363 0.836301 17.305 0.705025C17.1737 0.57375 16.9957 0.5 16.81 0.5" fill="#3B5998"/>
</g>
<defs>
<clipPath id="clip0_6796_3098">
<rect width="18" height="17.0001" fill="white" transform="translate(0.5 0.5)"/>
</clipPath>
</defs>
</svg>
