<svg width="40" height="40" viewBox="0 0 40 40" fill="none" xmlns="http://www.w3.org/2000/svg">
<path d="M7.5 25C7.36739 25 7.24021 25.0527 7.14645 25.1464C7.05268 25.2402 7 25.3674 7 25.5C7 25.6326 7.05268 25.7598 7.14645 25.8536C7.24021 25.9473 7.36739 26 7.5 26H9.5C9.63261 26 9.75979 25.9473 9.85355 25.8536C9.94732 25.7598 10 25.6326 10 25.5C10 25.3674 9.94732 25.2402 9.85355 25.1464C9.75979 25.0527 9.63261 25 9.5 25H7.5Z" fill="#6B7280"/>
<path d="M10.1459 16.146C10.0994 16.1925 10.0624 16.2477 10.0372 16.3084C10.012 16.3692 9.99902 16.4343 9.99902 16.5C9.99902 16.5658 10.012 16.6309 10.0372 16.6917C10.0624 16.7524 10.0994 16.8076 10.1459 16.854L12.1459 18.854C12.2398 18.9479 12.3671 19.0007 12.4999 19.0007C12.6327 19.0007 12.76 18.9479 12.8539 18.854C12.9478 18.7602 13.0005 18.6328 13.0005 18.5C13.0005 18.3673 12.9478 18.2399 12.8539 18.146L10.8539 16.146C10.8075 16.0995 10.7523 16.0625 10.6916 16.0373C10.6308 16.0121 10.5657 15.9991 10.4999 15.9991C10.4341 15.9991 10.369 16.0121 10.3083 16.0373C10.2475 16.0625 10.1924 16.0995 10.1459 16.146Z" fill="#6B7280"/>
<path d="M32.5 26C32.6326 26 32.7598 25.9473 32.8536 25.8536C32.9473 25.7598 33 25.6326 33 25.5C33 25.3674 32.9473 25.2402 32.8536 25.1464C32.7598 25.0527 32.6326 25 32.5 25H30.5C30.3674 25 30.2402 25.0527 30.1464 25.1464C30.0527 25.2402 30 25.3674 30 25.5C30 25.6326 30.0527 25.7598 30.1464 25.8536C30.2402 25.9473 30.3674 26 30.5 26H32.5Z" fill="#6B7280"/>
<path d="M20.5 14.5V12.5C20.5 12.3674 20.4473 12.2402 20.3536 12.1464C20.2598 12.0527 20.1326 12 20 12C19.8674 12 19.7402 12.0527 19.6464 12.1464C19.5527 12.2402 19.5 12.3674 19.5 12.5V14.5C19.5 14.6326 19.5527 14.7598 19.6464 14.8536C19.7402 14.9473 19.8674 15 20 15C20.1326 15 20.2598 14.9473 20.3536 14.8536C20.4473 14.7598 20.5 14.6326 20.5 14.5Z" fill="#6B7280"/>
<path d="M18.0004 24.5C18.0004 24.8955 18.1177 25.2822 18.3374 25.6111C18.5572 25.94 18.8696 26.1963 19.235 26.3477C19.6005 26.4991 20.0026 26.5387 20.3906 26.4615C20.7785 26.3844 21.1349 26.1939 21.4146 25.9142C21.6943 25.6345 21.8848 25.2781 21.962 24.8901C22.0391 24.5022 21.9995 24.1 21.8481 23.7346C21.6968 23.3691 21.4404 23.0568 21.1115 22.837C20.7826 22.6173 20.3959 22.5 20.0004 22.5C19.869 22.5 19.738 22.5134 19.6094 22.54L17.1004 17.069C17.0426 16.9523 16.9417 16.8628 16.819 16.8195C16.6963 16.7761 16.5615 16.7823 16.4433 16.8367C16.325 16.8911 16.2327 16.9895 16.1859 17.1109C16.139 17.2323 16.1414 17.3672 16.1924 17.487L18.7164 22.987C18.4943 23.172 18.3152 23.4032 18.1916 23.6645C18.0679 23.9258 18.0027 24.2109 18.0004 24.5ZM21.0004 24.5C21.0004 24.6977 20.9417 24.8911 20.8319 25.0555C20.722 25.22 20.5658 25.3481 20.3831 25.4238C20.2003 25.4995 19.9993 25.5193 19.8053 25.4807C19.6113 25.4422 19.4331 25.3469 19.2933 25.2071C19.1534 25.0672 19.0582 24.889 19.0196 24.695C18.981 24.5011 19.0008 24.3 19.0765 24.1173C19.1522 23.9345 19.2804 23.7784 19.4448 23.6685C19.6093 23.5586 19.8026 23.5 20.0004 23.5C20.2656 23.5 20.52 23.6053 20.7075 23.7928C20.895 23.9804 21.0004 24.2347 21.0004 24.5Z" fill="#6B7280"/>
<path d="M33.434 19.2C33.3726 19.2234 33.3164 19.2586 33.2686 19.3038C33.2208 19.3489 33.1824 19.403 33.1556 19.463C33.1287 19.523 33.114 19.5877 33.1121 19.6534C33.1103 19.7191 33.1215 19.7846 33.145 19.846C33.7123 21.3319 34.0021 22.9094 34 24.5V28H6V24.5C6.07149 20.8549 7.58536 17.387 10.2097 14.8563C12.8341 12.3257 16.3548 10.9389 20 11C20.406 11 20.81 11.017 21.209 11.05C21.2747 11.057 21.3411 11.0506 21.4042 11.0312C21.4674 11.0119 21.526 10.9799 21.5764 10.9373C21.6269 10.8947 21.6682 10.8423 21.6979 10.7833C21.7275 10.7243 21.7449 10.6599 21.749 10.594C21.7601 10.4619 21.7183 10.3308 21.6328 10.2296C21.5473 10.1283 21.4251 10.0652 21.293 10.054C20.8663 10.018 20.4353 9.99995 20 9.99995C16.0897 9.9392 12.3148 11.4315 9.50295 14.1496C6.69112 16.8677 5.0718 20.5898 5 24.5V28.5C5 28.6326 5.05268 28.7597 5.14645 28.8535C5.24021 28.9473 5.36739 29 5.5 29H34.5C34.6326 29 34.7598 28.9473 34.8536 28.8535C34.9473 28.7597 35 28.6326 35 28.5V24.5C35.0025 22.7871 34.6907 21.0883 34.08 19.488C34.0565 19.4266 34.0212 19.3705 33.976 19.3228C33.9308 19.2752 33.8767 19.2369 33.8167 19.2101C33.7567 19.1834 33.692 19.1687 33.6263 19.167C33.5607 19.1652 33.4953 19.1764 33.434 19.2Z" fill="#6B7280"/>
<path d="M36.6584 11.4679C35.4684 9.33195 33.6464 8.84495 31.5354 8.28095C30.5493 8.03873 29.5805 7.73104 28.6354 7.35995C26.9473 6.78243 25.4798 5.69549 24.4354 4.24895C24.3805 4.1489 24.293 4.07065 24.1875 4.02718C24.082 3.98372 23.9648 3.97766 23.8553 4.01002C23.7459 4.04237 23.6508 4.11119 23.5859 4.20504C23.521 4.29889 23.4901 4.41213 23.4984 4.52595C23.5194 4.81695 23.5254 5.18795 23.5324 5.61895C23.5774 8.50795 23.6604 13.8859 28.1854 16.5849C29.7253 17.564 31.504 18.1025 33.3284 18.1419C34.6472 18.1735 35.9463 17.8171 37.0644 17.1169C37.1552 17.0522 37.2217 16.9589 37.2534 16.8519C37.7255 15.0453 37.5137 13.1279 36.6584 11.4679ZM25.0194 6.36795C24.9267 6.35623 24.8326 6.37337 24.7499 6.41702C24.6672 6.46068 24.6 6.52874 24.5574 6.61195C24.5504 6.37695 24.5444 6.14895 24.5404 5.93495C24.6804 6.06895 24.8434 6.21495 25.0194 6.36395V6.36795ZM25.0714 10.5899C24.7904 9.46887 24.6259 8.3218 24.5804 7.16695C25.3995 8.5463 26.3816 9.82213 27.5054 10.9669C26.8584 10.9663 26.2209 10.8106 25.6464 10.5129C25.5548 10.4639 25.4503 10.4445 25.3472 10.4576C25.2442 10.4707 25.1478 10.5156 25.0714 10.5859V10.5899ZM36.3394 16.3999C35.6654 16.7999 32.7954 18.1709 28.7004 15.7299C27.1063 14.7594 25.9142 13.2482 25.3414 11.4719C25.9666 11.7744 26.6474 11.9446 27.3414 11.9719C27.4254 11.9719 27.5114 11.9719 27.5954 11.9609C27.7115 11.9501 27.8199 11.8984 27.9014 11.8151C27.9829 11.7318 28.0321 11.6222 28.0404 11.5059C28.5358 11.9955 29.0601 12.455 29.6104 12.8819C31.4885 14.2564 33.5677 15.3324 35.7744 16.0719C35.8231 16.0882 35.8741 16.0963 35.9254 16.0959C36.0449 16.096 36.1604 16.0532 36.2511 15.9754C36.3418 15.8976 36.4016 15.7899 36.4197 15.6718C36.4378 15.5537 36.4131 15.4331 36.3499 15.3316C36.2868 15.2302 36.1894 15.1548 36.0754 15.1189C36.0614 15.1189 35.4134 14.9069 34.4754 14.5029C34.5699 14.4956 34.6603 14.4612 34.7357 14.4037C34.8111 14.3462 34.8683 14.2682 34.9004 14.1789C35.1938 13.1638 35.1965 12.0866 34.9084 11.0699C34.8721 10.9424 34.7865 10.8345 34.6706 10.77C34.5548 10.7054 34.418 10.6896 34.2904 10.7259C34.1628 10.7623 34.0549 10.8478 33.9904 10.9637C33.9259 11.0796 33.9101 11.2164 33.9464 11.3439C34.1766 12.1662 34.179 13.0355 33.9534 13.8589C33.9294 13.9344 33.924 14.0145 33.9375 14.0925C33.9511 14.1705 33.9833 14.2441 34.0314 14.3069C32.8832 13.7956 31.784 13.1807 30.7474 12.4699C30.7574 12.4699 30.7684 12.4699 30.7784 12.4699C30.8901 12.4699 30.9985 12.4324 31.0864 12.3635C31.1743 12.2947 31.2366 12.1983 31.2634 12.0899C31.4064 11.2825 31.4098 10.4565 31.2734 9.64795C31.254 9.5181 31.1842 9.40111 31.0793 9.32223C30.9743 9.24336 30.8425 9.20894 30.7124 9.22641C30.5823 9.24387 30.4642 9.31182 30.3838 9.41557C30.3033 9.51933 30.2669 9.65057 30.2824 9.78095C30.3978 10.4655 30.4011 11.1643 30.2924 11.8499C30.2692 11.9533 30.2801 12.0613 30.3234 12.1579L30.2234 12.0839C28.3408 10.5902 26.7345 8.77816 25.4774 6.72995C26.3323 7.36564 27.2657 7.8883 28.2544 8.28495C29.2398 8.6721 30.2496 8.9938 31.2774 9.24795C33.3234 9.79395 34.8014 10.1889 35.7844 11.9539C36.4813 13.3262 36.6776 14.8985 36.3394 16.3999Z" fill="#6B7280"/>
<path d="M30.834 14.319C30.1458 14.463 29.4343 14.4537 28.75 14.292C28.6212 14.2601 28.4851 14.2808 28.3715 14.3493C28.258 14.4178 28.1763 14.5287 28.1445 14.6575C28.1127 14.7862 28.1333 14.9224 28.2018 15.0359C28.2704 15.1495 28.3812 15.2311 28.51 15.263C28.9825 15.3705 29.4654 15.4255 29.95 15.427C30.3423 15.4319 30.7333 15.3824 31.112 15.28C31.2394 15.2431 31.347 15.1571 31.411 15.0409C31.4751 14.9248 31.4904 14.7879 31.4535 14.6605C31.4166 14.533 31.3307 14.4254 31.2145 14.3614C31.0983 14.2974 30.9614 14.2821 30.834 14.319Z" fill="#6B7280"/>
</svg>
