<svg width="40" height="40" viewBox="0 0 40 40" fill="none" xmlns="http://www.w3.org/2000/svg">
<path d="M31.909 10.0631L29.909 7.21305C29.8725 7.15661 29.8249 7.10812 29.7692 7.07047C29.7135 7.03282 29.6508 7.0068 29.5848 6.99395C29.5188 6.98111 29.4509 6.9817 29.3851 6.99571C29.3194 7.00971 29.2571 7.03683 29.2021 7.07545C29.147 7.11407 29.1003 7.1634 29.0648 7.22048C29.0293 7.27755 29.0056 7.34121 28.9952 7.40764C28.9849 7.47408 28.988 7.54192 29.0045 7.60711C29.0209 7.6723 29.0503 7.7335 29.091 7.78706L29.721 8.68706C29.6728 8.70736 29.6282 8.73539 29.589 8.77006L28.155 10.1411C28.1064 10.1874 28.0676 10.2431 28.0409 10.3048C28.0143 10.3665 28.0004 10.4329 28 10.5001V12.5001C27.9999 12.5658 28.0127 12.6308 28.0378 12.6916C28.0628 12.7523 28.0996 12.8075 28.146 12.8541L29.146 13.8541C29.2399 13.9479 29.3672 14.0007 29.5 14.0007C29.6328 14.0007 29.7601 13.9479 29.854 13.8541C29.9479 13.7602 30.0006 13.6328 30.0006 13.5001C30.0006 13.3673 29.9479 13.2399 29.854 13.1461L29 12.2931V10.7141L30.28 9.49106L31 10.5071V27.5931C31 27.7241 30.948 27.8497 30.8553 27.9424C30.7627 28.035 30.637 28.0871 30.506 28.0871H29.481C29.3502 28.0868 29.2248 28.0346 29.1323 27.942C29.0399 27.8494 28.988 27.7239 28.988 27.5931V17.4101C28.988 17.2774 28.9353 17.1503 28.8416 17.0565C28.7478 16.9627 28.6206 16.9101 28.488 16.9101H27V9.35805C26.9992 8.73292 26.7505 8.13361 26.3085 7.69157C25.8664 7.24954 25.2671 7.00085 24.642 7.00006H11.358C10.7329 7.00085 10.1336 7.24954 9.69152 7.69157C9.24948 8.13361 9.00079 8.73292 9 9.35805V31.0001H8.43C8.0509 31.0006 7.68748 31.1514 7.41942 31.4195C7.15136 31.6875 7.00053 32.051 7 32.4301V32.5701C7.00053 32.9492 7.15136 33.3126 7.41942 33.5806C7.68748 33.8487 8.0509 33.9995 8.43 34.0001H27.548C27.746 33.9969 27.9413 33.954 28.1224 33.8739C28.3034 33.7938 28.4665 33.6781 28.602 33.5337C28.7374 33.3893 28.8425 33.2191 28.9108 33.0333C28.9792 32.8475 29.0095 32.6498 29 32.4521C28.9997 32.067 28.8467 31.6979 28.5744 31.4256C28.3022 31.1534 27.933 31.0003 27.548 31.0001H27V17.9101H27.988V27.5931C27.9896 27.9886 28.1474 28.3676 28.427 28.6474C28.7066 28.9272 29.0854 29.0852 29.481 29.0871H30.506C30.9017 29.0855 31.2808 28.9276 31.5607 28.6477C31.8405 28.3679 31.9984 27.9888 32 27.5931V10.3501C31.9999 10.2473 31.9681 10.1471 31.909 10.0631ZM27.548 32.0001C27.797 32.0001 28 32.2001 28 32.5481C27.9997 32.6679 27.952 32.7827 27.8673 32.8674C27.7826 32.9521 27.6678 32.9998 27.548 33.0001H8.43C8.31604 32.9998 8.20682 32.9544 8.12624 32.8738C8.04565 32.7932 8.00026 32.684 8 32.5701V32.4301C8.00026 32.3161 8.04565 32.2069 8.12624 32.1263C8.20682 32.0457 8.31604 32.0003 8.43 32.0001H9.5C9.63261 32.0001 9.75979 31.9474 9.85355 31.8536C9.94732 31.7598 10 31.6327 10 31.5001V9.35805C10.0003 8.99797 10.1434 8.65271 10.398 8.3981C10.6527 8.14348 10.9979 8.00032 11.358 8.00006H24.642C25.0021 8.00032 25.3473 8.14348 25.602 8.3981C25.8566 8.65271 25.9997 8.99797 26 9.35805V31.5001C26 31.6327 26.0527 31.7598 26.1464 31.8536C26.2402 31.9474 26.3674 32.0001 26.5 32.0001H27.548Z" fill="#6B7280"/>
<path d="M24.5 9H11.5C11.3674 9 11.2402 9.05268 11.1464 9.14645C11.0527 9.24021 11 9.36739 11 9.5V17.5C11 17.6326 11.0527 17.7598 11.1464 17.8536C11.2402 17.9473 11.3674 18 11.5 18H24.5C24.6326 18 24.7598 17.9473 24.8536 17.8536C24.9473 17.7598 25 17.6326 25 17.5V9.5C25 9.36739 24.9473 9.24021 24.8536 9.14645C24.7598 9.05268 24.6326 9 24.5 9ZM24 17H12V10H24V17Z" fill="#6B7280"/>
</svg>
