<svg width="40" height="40" viewBox="0 0 40 40" fill="none" xmlns="http://www.w3.org/2000/svg">
<path d="M36.9 32.1999L26.9 19.1999C26.8179 19.0986 26.6994 19.0334 26.5698 19.0183C26.4403 19.0031 26.31 19.0392 26.2066 19.1188C26.1033 19.1984 26.0352 19.3152 26.0167 19.4443C25.9983 19.5734 26.0311 19.7046 26.108 19.8099L36.108 32.8099C36.1902 32.9112 36.3087 32.9764 36.4382 32.9915C36.5678 33.0067 36.6981 32.9706 36.8014 32.891C36.9048 32.8115 36.9729 32.6946 36.9913 32.5655C37.0097 32.4364 36.977 32.3052 36.9 32.1999Z" fill="#6B7280"/>
<path d="M13.8049 19.0999C13.6999 19.0193 13.5673 18.9837 13.4361 19.0008C13.3049 19.0178 13.1858 19.0862 13.1049 19.1909L3.10486 32.1909C3.06282 32.2427 3.03159 32.3024 3.01299 32.3665C2.99439 32.4306 2.9888 32.4977 2.99655 32.564C3.00431 32.6302 3.02525 32.6943 3.05814 32.7523C3.09103 32.8104 3.13521 32.8613 3.18807 32.902C3.24093 32.9427 3.3014 32.9724 3.36593 32.9894C3.43045 33.0064 3.49773 33.0103 3.56378 33.0009C3.62983 32.9914 3.69333 32.9689 3.75054 32.9345C3.80774 32.9002 3.85749 32.8547 3.89686 32.8009L13.8969 19.8009C13.9776 19.6957 14.0133 19.5628 13.996 19.4313C13.9788 19.2999 13.91 19.1806 13.8049 19.0999Z" fill="#6B7280"/>
<path d="M23.9112 19.215C23.8651 19.1486 23.8037 19.0944 23.7321 19.057C23.6605 19.0195 23.581 19 23.5002 19H16.5002C16.4194 19 16.3398 19.0195 16.2682 19.057C16.1967 19.0944 16.1352 19.1486 16.0892 19.215L7.08918 32.215C7.03714 32.29 7.00663 32.3779 7.00096 32.469C6.9953 32.5601 7.01469 32.651 7.05704 32.7319C7.09939 32.8128 7.16308 32.8805 7.24119 32.9278C7.31931 32.9751 7.40888 33 7.50018 33H32.5002C32.5915 33 32.681 32.9751 32.7592 32.9278C32.8373 32.8805 32.901 32.8128 32.9433 32.7319C32.9857 32.651 33.0051 32.5601 32.9994 32.469C32.9937 32.3779 32.9632 32.29 32.9112 32.215L23.9112 19.215ZM14.6852 23H25.3152L27.3922 26H12.6082L14.6852 23ZM16.7622 20H23.2382L24.6222 22H15.3782L16.7622 20ZM31.5462 32H8.45418L11.9162 27H28.0842L31.5462 32Z" fill="#6B7280"/>
<path d="M17 17H23V18H24V16C24 15.866 21.969 13 21.969 13H18.029C18.029 13 16 15.87 16 16V18H17V17Z" fill="#6B7280"/>
</svg>
