<svg width="40" height="40" viewBox="0 0 40 40" fill="none" xmlns="http://www.w3.org/2000/svg">
<path d="M10.5 10C10.6326 10 10.7598 9.94732 10.8536 9.85355C10.9473 9.75979 11 9.63261 11 9.5V6.5C11 6.36739 10.9473 6.24021 10.8536 6.14645C10.7598 6.05268 10.6326 6 10.5 6C10.3674 6 10.2402 6.05268 10.1464 6.14645C10.0527 6.24021 10 6.36739 10 6.5V9.5C10 9.63261 10.0527 9.75979 10.1464 9.85355C10.2402 9.94732 10.3674 10 10.5 10Z" fill="#6B7280"/>
<path d="M14.4999 10.9999C14.5656 11 14.6307 10.9872 14.6914 10.9621C14.7522 10.9371 14.8074 10.9003 14.8539 10.8539L16.8539 8.8539C16.9478 8.76001 17.0006 8.63268 17.0006 8.4999C17.0006 8.36712 16.9478 8.23979 16.8539 8.1459C16.76 8.05201 16.6327 7.99927 16.4999 7.99927C16.3671 7.99927 16.2398 8.05201 16.1459 8.1459L14.1459 10.1459C14.0758 10.2158 14.028 10.305 14.0087 10.4021C13.9893 10.4992 13.9992 10.5999 14.0371 10.6914C14.0751 10.7828 14.1393 10.861 14.2217 10.9159C14.3041 10.9708 14.4009 11.0001 14.4999 10.9999Z" fill="#6B7280"/>
<path d="M5.14565 19.1459L3.14565 21.1459C3.09917 21.1924 3.06229 21.2476 3.03713 21.3083C3.01197 21.3691 2.99902 21.4342 2.99902 21.4999C2.99902 21.5656 3.01197 21.6307 3.03713 21.6915C3.06229 21.7522 3.09917 21.8074 3.14565 21.8539C3.19214 21.9004 3.24733 21.9373 3.30807 21.9624C3.36881 21.9876 3.43391 22.0005 3.49966 22.0005C3.5654 22.0005 3.6305 21.9876 3.69124 21.9624C3.75198 21.9373 3.80717 21.9004 3.85366 21.8539L5.85366 19.8539C5.94754 19.76 6.00029 19.6327 6.00029 19.4999C6.00029 19.3671 5.94754 19.2398 5.85366 19.1459C5.75977 19.052 5.63243 18.9993 5.49966 18.9993C5.36688 18.9993 5.23954 19.052 5.14565 19.1459Z" fill="#6B7280"/>
<path d="M5 15.5C5 15.3674 4.94732 15.2402 4.85355 15.1464C4.75979 15.0527 4.63261 15 4.5 15H1.5C1.36739 15 1.24021 15.0527 1.14645 15.1464C1.05268 15.2402 1 15.3674 1 15.5C1 15.6326 1.05268 15.7598 1.14645 15.8536C1.24021 15.9473 1.36739 16 1.5 16H4.5C4.63261 16 4.75979 15.9473 4.85355 15.8536C4.94732 15.7598 5 15.6326 5 15.5Z" fill="#6B7280"/>
<path d="M3.85366 8.1459C3.75977 8.05201 3.63243 7.99927 3.49966 7.99927C3.36688 7.99927 3.23954 8.05201 3.14565 8.1459C3.05177 8.23979 2.99902 8.36712 2.99902 8.4999C2.99902 8.63268 3.05177 8.76001 3.14565 8.8539L5.14565 10.8539C5.19214 10.9004 5.24733 10.9373 5.30807 10.9624C5.36881 10.9876 5.43391 11.0005 5.49966 11.0005C5.5654 11.0005 5.6305 10.9876 5.69124 10.9624C5.75198 10.9373 5.80717 10.9004 5.85366 10.8539C5.90014 10.8074 5.93702 10.7522 5.96218 10.6915C5.98734 10.6307 6.00029 10.5656 6.00029 10.4999C6.00029 10.4342 5.98734 10.3691 5.96218 10.3083C5.93702 10.2476 5.90014 10.1924 5.85366 10.1459L3.85366 8.1459Z" fill="#6B7280"/>
<path d="M7.37714 15.2681C7.37714 14.5 7.68185 13.7633 8.22441 13.2196C8.76696 12.6759 9.50305 12.3697 10.2711 12.3681C10.9251 12.3655 11.5603 12.5868 12.0711 12.9951C12.1226 13.0359 12.1816 13.0661 12.2448 13.0841C12.3079 13.102 12.374 13.1074 12.4393 13.0998C12.5045 13.0923 12.5676 13.0719 12.625 13.04C12.6823 13.008 12.7329 12.9651 12.7736 12.9136C12.8144 12.8621 12.8446 12.8031 12.8626 12.7399C12.8806 12.6768 12.8859 12.6107 12.8784 12.5455C12.8708 12.4802 12.8505 12.4171 12.8185 12.3597C12.7866 12.3024 12.7436 12.2519 12.6921 12.2111C11.9937 11.6574 11.1265 11.36 10.2352 11.3686C9.34399 11.3772 8.48267 11.6913 7.7951 12.2585C7.10753 12.8256 6.63533 13.6115 6.45735 14.4848C6.27936 15.3581 6.40636 16.2661 6.81714 17.0571C6.85943 17.1383 6.9232 17.2063 7.00149 17.2537C7.07978 17.3012 7.1696 17.3262 7.26114 17.3261C7.34164 17.3262 7.42095 17.3067 7.49214 17.2691C7.60755 17.2071 7.694 17.1022 7.7329 16.9771C7.7718 16.852 7.76003 16.7166 7.70014 16.6001C7.48583 16.1889 7.37497 15.7317 7.37714 15.2681Z" fill="#6B7280"/>
<path d="M27.5 17H37.5C37.6326 17 37.7598 16.9473 37.8536 16.8536C37.9473 16.7598 38 16.6326 38 16.5C38 16.3674 37.9473 16.2402 37.8536 16.1464C37.7598 16.0527 37.6326 16 37.5 16H27.5C27.3674 16 27.2402 16.0527 27.1464 16.1464C27.0527 16.2402 27 16.3674 27 16.5C27 16.6326 27.0527 16.7598 27.1464 16.8536C27.2402 16.9473 27.3674 17 27.5 17Z" fill="#6B7280"/>
<path d="M37.5 19H27.5C27.3674 19 27.2402 19.0527 27.1464 19.1464C27.0527 19.2402 27 19.3674 27 19.5C27 19.6326 27.0527 19.7598 27.1464 19.8536C27.2402 19.9473 27.3674 20 27.5 20H37.5C37.6326 20 37.7598 19.9473 37.8536 19.8536C37.9473 19.7598 38 19.6326 38 19.5C38 19.3674 37.9473 19.2402 37.8536 19.1464C37.7598 19.0527 37.6326 19 37.5 19Z" fill="#6B7280"/>
<path d="M37.5 22H27.5C27.3674 22 27.2402 22.0527 27.1464 22.1464C27.0527 22.2402 27 22.3674 27 22.5C27 22.6326 27.0527 22.7598 27.1464 22.8536C27.2402 22.9473 27.3674 23 27.5 23H37.5C37.6326 23 37.7598 22.9473 37.8536 22.8536C37.9473 22.7598 38 22.6326 38 22.5C38 22.3674 37.9473 22.2402 37.8536 22.1464C37.7598 22.0527 37.6326 22 37.5 22Z" fill="#6B7280"/>
<path d="M37.5 25H27.5C27.3674 25 27.2402 25.0527 27.1464 25.1464C27.0527 25.2402 27 25.3674 27 25.5C27 25.6326 27.0527 25.7598 27.1464 25.8536C27.2402 25.9473 27.3674 26 27.5 26H37.5C37.6326 26 37.7598 25.9473 37.8536 25.8536C37.9473 25.7598 38 25.6326 38 25.5C38 25.3674 37.9473 25.2402 37.8536 25.1464C37.7598 25.0527 37.6326 25 37.5 25Z" fill="#6B7280"/>
<path d="M10.5 28H9V24.5C9 24.3674 8.94732 24.2402 8.85355 24.1464C8.75979 24.0527 8.63261 24 8.5 24C8.36739 24 8.24021 24.0527 8.14645 24.1464C8.05268 24.2402 8 24.3674 8 24.5V28.5C8 28.6326 8.05268 28.7598 8.14645 28.8536C8.24021 28.9473 8.36739 29 8.5 29H10.5C10.6326 29 10.7598 28.9473 10.8536 28.8536C10.9473 28.7598 11 28.6326 11 28.5C11 28.3674 10.9473 28.2402 10.8536 28.1464C10.7598 28.0527 10.6326 28 10.5 28Z" fill="#6B7280"/>
<path d="M14.5 25C14.6326 25 14.7598 24.9473 14.8536 24.8536C14.9473 24.7598 15 24.6326 15 24.5C15 24.3674 14.9473 24.2402 14.8536 24.1464C14.7598 24.0527 14.6326 24 14.5 24H12.5C12.3674 24 12.2402 24.0527 12.1464 24.1464C12.0527 24.2402 12 24.3674 12 24.5V28.5C12 28.6326 12.0527 28.7598 12.1464 28.8536C12.2402 28.9473 12.3674 29 12.5 29H14.5C14.6326 29 14.7598 28.9473 14.8536 28.8536C14.9473 28.7598 15 28.6326 15 28.5C15 28.3674 14.9473 28.2402 14.8536 28.1464C14.7598 28.0527 14.6326 28 14.5 28H13V27H14.5C14.6326 27 14.7598 26.9473 14.8536 26.8536C14.9473 26.7598 15 26.6326 15 26.5C15 26.3674 14.9473 26.2402 14.8536 26.1464C14.7598 26.0527 14.6326 26 14.5 26H13V25H14.5Z" fill="#6B7280"/>
<path d="M18.5 28H17V25H18.5C18.6326 25 18.7598 24.9473 18.8536 24.8536C18.9473 24.7598 19 24.6326 19 24.5C19 24.3674 18.9473 24.2402 18.8536 24.1464C18.7598 24.0527 18.6326 24 18.5 24H16.5C16.3674 24 16.2402 24.0527 16.1464 24.1464C16.0527 24.2402 16 24.3674 16 24.5V28.5C16 28.6326 16.0527 28.7598 16.1464 28.8536C16.2402 28.9473 16.3674 29 16.5 29H18.5C18.6326 29 18.7598 28.9473 18.8536 28.8536C18.9473 28.7598 19 28.6326 19 28.5C19 28.3674 18.9473 28.2402 18.8536 28.1464C18.7598 28.0527 18.6326 28 18.5 28Z" fill="#6B7280"/>
<path d="M19.5 25C19.3674 25 19.2402 25.0527 19.1464 25.1464C19.0527 25.2402 19 25.3674 19 25.5V27.5C19 27.6326 19.0527 27.7598 19.1464 27.8536C19.2402 27.9473 19.3674 28 19.5 28C19.6326 28 19.7598 27.9473 19.8536 27.8536C19.9473 27.7598 20 27.6326 20 27.5V25.5C20 25.3674 19.9473 25.2402 19.8536 25.1464C19.7598 25.0527 19.6326 25 19.5 25Z" fill="#6B7280"/>
<path d="M24.445 11C23.814 11.073 9 12.812 9 20.5C8.99965 20.8514 9.03314 21.202 9.1 21.547C9.1252 21.6772 9.20109 21.7921 9.31099 21.8664C9.42088 21.9406 9.55578 21.9682 9.686 21.943C9.81622 21.9178 9.9311 21.8419 10.0054 21.732C10.0796 21.6221 10.1072 21.4872 10.082 21.357C10.0272 21.0747 9.99971 20.7877 10 20.5C10 14.384 21.665 12.4 24.11 12.056C24.6819 14.8348 24.98 17.663 25 20.5C25.0191 23.0181 24.7262 25.5289 24.128 27.975C23.76 27.948 23.157 27.896 22.406 27.803C22.2764 27.7907 22.1472 27.8293 22.0457 27.9108C21.9442 27.9923 21.8784 28.1101 21.8624 28.2392C21.8464 28.3684 21.8814 28.4987 21.9599 28.6025C22.0384 28.7063 22.1544 28.7753 22.283 28.795C23.583 28.956 24.44 28.995 24.476 28.995H24.5C24.6063 28.9951 24.7098 28.9613 24.7956 28.8985C24.8814 28.8358 24.9449 28.7473 24.977 28.646C25.699 25.9922 26.0434 23.2499 26 20.5C25.9866 17.4336 25.6467 14.3774 24.986 11.383C24.9581 11.2641 24.8878 11.1595 24.7881 11.089C24.6884 11.0184 24.5664 10.9868 24.445 11Z" fill="#6B7280"/>
</svg>
