<svg width="40" height="40" viewBox="0 0 40 40" fill="none" xmlns="http://www.w3.org/2000/svg">
<path d="M31.9002 14.282C31.7572 14.069 31.2182 13.954 30.8652 13.9L30.8242 12.268C30.8242 12.268 30.7942 9.89197 30.7402 9.24397C30.6555 8.61139 30.4829 7.99376 30.2272 7.40897C29.8914 6.87962 29.4203 6.44948 28.8627 6.16295C28.3051 5.87642 27.6812 5.74386 27.0552 5.77897H26.9862C26.3602 5.744 25.7361 5.8766 25.1784 6.16311C24.6207 6.44963 24.1494 6.87969 23.8132 7.40897C23.5581 7.99394 23.3855 8.6115 23.3002 9.24397C23.2462 9.89197 23.2342 12.268 23.2342 12.268L23.2002 13.9C22.8492 13.953 22.2882 14.068 22.1432 14.286C21.9272 14.61 22.4132 14.77 22.4132 14.77H23.1802L23.0902 18.75V21.185C23.0087 22.1051 23.2156 23.0278 23.6822 23.825C24.6517 24.5152 25.8101 24.8905 27.0002 24.9H27.0602C28.2525 24.8886 29.4125 24.5112 30.3832 23.819C30.8559 23.0237 31.0691 22.101 30.9932 21.179V18.746L30.8932 14.766H31.6362C31.6362 14.766 32.1192 14.606 31.9002 14.282ZM27.0552 23.511C26.0758 23.5251 25.1079 23.2977 24.2372 22.849L24.3992 20.312C24.3992 20.312 26.0162 20.5 27.0552 20.5C28.0942 20.5 29.7112 20.312 29.7112 20.312L29.8732 22.849C29.0034 23.2972 28.0367 23.5246 27.0582 23.511H27.0552ZM29.6922 13.671C28.8177 13.5547 27.9373 13.488 27.0552 13.471C26.1732 13.488 25.2928 13.5547 24.4182 13.671C24.4182 13.671 24.0812 11.282 24.1082 10.985C24.1352 10.688 23.8462 9.79997 27.0582 9.79997C30.2702 9.79997 29.9782 10.689 30.0052 10.986C30.0322 11.283 29.7002 13.671 29.7002 13.671H29.6922Z" fill="#6B7280"/>
<path d="M18.0684 33.4L18.0274 31.768C18.0274 31.768 17.9974 29.392 17.9434 28.744C17.8587 28.1114 17.686 27.4938 17.4304 26.909C17.0946 26.3796 16.6235 25.9495 16.0659 25.6629C15.5083 25.3764 14.8844 25.2439 14.2584 25.279H14.1894C13.5634 25.244 12.9393 25.3766 12.3816 25.6631C11.8239 25.9496 11.3526 26.3797 11.0164 26.909C10.7616 27.494 10.5893 28.1115 10.5044 28.744C10.4504 29.392 10.4384 31.768 10.4384 31.768L10.4004 33.4C10.0494 33.453 9.48842 33.568 9.34342 33.786C9.12742 34.11 9.61342 34.27 9.61342 34.27H10.3804L10.3684 34.814H18.1004L18.0864 34.27H18.8294C18.8294 34.27 19.3154 34.11 19.0994 33.786C18.9614 33.569 18.4214 33.454 18.0684 33.4ZM16.9004 33.171C16.0259 33.0547 15.1455 32.988 14.2634 32.971C13.3814 32.988 12.501 33.0547 11.6264 33.171C11.6264 33.171 11.2894 30.782 11.3164 30.485C11.3434 30.188 11.0464 29.3 14.2584 29.3C17.4704 29.3 17.1784 30.189 17.2054 30.486C17.2324 30.783 16.9004 33.171 16.9004 33.171Z" fill="#6B7280"/>
<path d="M24.8294 27.515C25.0249 27.5147 25.2202 27.503 25.4144 27.48C25.546 27.4647 25.6662 27.3977 25.7485 27.2939C25.8309 27.19 25.8686 27.0577 25.8534 26.926C25.8458 26.8607 25.8254 26.7976 25.7934 26.7401C25.7614 26.6827 25.7184 26.6322 25.6669 26.5914C25.6153 26.5507 25.5563 26.5204 25.493 26.5025C25.4298 26.4846 25.3636 26.4793 25.2984 26.487C24.7101 26.5568 24.1136 26.4927 23.5536 26.2994C22.9936 26.1061 22.4845 25.7887 22.0645 25.3709C21.6445 24.9531 21.3244 24.4457 21.1282 23.8868C20.9319 23.3278 20.8647 22.7316 20.9314 22.143C20.9387 22.0777 20.933 22.0117 20.9148 21.9486C20.8965 21.8855 20.866 21.8266 20.825 21.7753C20.784 21.724 20.7333 21.6813 20.6758 21.6496C20.6183 21.6179 20.5551 21.5978 20.4899 21.5905C20.4246 21.5832 20.3585 21.5888 20.2954 21.6071C20.2324 21.6253 20.1735 21.6558 20.1222 21.6968C20.0709 21.7378 20.0281 21.7885 19.9964 21.846C19.9647 21.9035 19.9447 21.9667 19.9374 22.032C19.8596 22.7211 19.928 23.4189 20.1383 24.0797C20.3486 24.7406 20.6959 25.3497 21.1576 25.8671C21.6193 26.3846 22.185 26.7988 22.8177 27.0828C23.4504 27.3668 24.1359 27.514 24.8294 27.515Z" fill="#6B7280"/>
<path d="M25.3999 28.3869C24.5455 28.4746 23.6823 28.3717 22.8725 28.0856C22.0627 27.7994 21.3264 27.3372 20.7167 26.7322C20.107 26.1273 19.6392 25.3946 19.3468 24.587C19.0544 23.7794 18.9448 22.917 19.0259 22.0619C19.0321 21.9962 19.0253 21.93 19.0059 21.867C18.9864 21.804 18.9548 21.7454 18.9127 21.6946C18.8707 21.6438 18.819 21.6018 18.7607 21.5709C18.7024 21.5401 18.6386 21.5211 18.5729 21.5149C18.5073 21.5087 18.4411 21.5155 18.378 21.535C18.315 21.5544 18.2564 21.586 18.2056 21.6281C18.1548 21.6702 18.1128 21.7218 18.082 21.7801C18.0512 21.8384 18.0321 21.9022 18.0259 21.9679C17.9318 22.97 18.0609 23.9805 18.404 24.9268C18.7471 25.873 19.2956 26.7315 20.0101 27.4405C20.7246 28.1494 21.5873 28.6912 22.5362 29.0269C23.4851 29.3626 24.4966 29.4838 25.4979 29.3819C25.5636 29.3753 25.6273 29.3559 25.6855 29.3247C25.7436 29.2935 25.7951 29.2512 25.8369 29.2001C25.8786 29.149 25.91 29.0902 25.929 29.027C25.9481 28.9639 25.9545 28.8976 25.9479 28.8319C25.9414 28.7662 25.9219 28.7025 25.8908 28.6444C25.8596 28.5862 25.8172 28.5348 25.7661 28.493C25.7151 28.4512 25.6563 28.4199 25.5931 28.4008C25.5299 28.3818 25.4636 28.3753 25.3979 28.3819L25.3999 28.3869Z" fill="#6B7280"/>
</svg>
