<svg width="40" height="40" viewBox="0 0 40 40" fill="none" xmlns="http://www.w3.org/2000/svg">
<path d="M11.9442 22.6C12.0271 22.4976 12.0663 22.3667 12.0532 22.2356C12.0401 22.1045 11.9758 21.9839 11.8742 21.9C10.5699 20.8355 9.5942 19.4228 9.06051 17.8261C8.52681 16.2293 8.45698 14.5139 8.85912 12.879C9.26126 11.2441 10.1189 9.75684 11.3324 8.58983C12.5459 7.42282 14.0656 6.62395 15.7149 6.28598C17.3642 5.94801 19.0756 6.08479 20.6503 6.68045C22.225 7.27611 23.5985 8.30622 24.6113 9.65116C25.624 10.9961 26.2345 12.6007 26.3718 14.2787C26.5092 15.9567 26.1678 17.6393 25.3872 19.131C25.3567 19.1892 25.3379 19.2528 25.332 19.3182C25.326 19.3837 25.333 19.4496 25.3526 19.5124C25.3721 19.5751 25.4038 19.6333 25.4459 19.6838C25.488 19.7343 25.5396 19.776 25.5977 19.8065C25.6559 19.837 25.7195 19.8558 25.785 19.8618C25.8504 19.8677 25.9163 19.8607 25.9791 19.8412C26.0418 19.8216 26.1001 19.7899 26.1505 19.7478C26.201 19.7058 26.2427 19.6542 26.2732 19.596C27.1422 17.937 27.5228 16.0655 27.3709 14.1989C27.2189 12.3323 26.5406 10.547 25.4146 9.05046C24.2887 7.55388 22.7614 6.40738 21.0099 5.74406C19.2585 5.08074 17.3549 4.92781 15.52 5.30303C13.6852 5.67825 11.9944 6.56622 10.644 7.86386C9.29362 9.16149 8.33899 10.8156 7.89097 12.634C7.44295 14.4524 7.51991 16.3607 8.11293 18.1371C8.70596 19.9135 9.7907 21.4853 11.2412 22.67C11.3436 22.7529 11.4746 22.792 11.6056 22.7789C11.7367 22.7658 11.8573 22.7015 11.9412 22.6H11.9442Z" fill="#6B7280"/>
<path d="M26.7704 21.1C26.3973 21.1024 26.0345 21.2232 25.7344 21.445C25.5753 21.0805 25.3136 20.7703 24.9812 20.5521C24.6488 20.3339 24.26 20.2171 23.8624 20.216C23.4552 20.2194 23.0601 20.3549 22.7364 20.602C22.5761 20.2335 22.3099 19.9209 21.9716 19.7041C21.6333 19.4872 21.2382 19.3758 20.8364 19.384C20.4958 19.3859 20.1616 19.4773 19.8674 19.649V15.996C19.8324 15.4778 19.5988 14.9931 19.2152 14.6429C18.8316 14.2928 18.3277 14.1042 17.8084 14.1164C17.2892 14.1287 16.7948 14.3408 16.4281 14.7087C16.0615 15.0765 15.8509 15.5717 15.8404 16.091V25.671C14.5764 24.331 13.1314 23.271 12.1494 24.015C11.9558 24.1404 11.7889 24.3028 11.6582 24.4928C11.5275 24.6829 11.4356 24.8969 11.3877 25.1226C11.3399 25.3482 11.337 25.5811 11.3794 25.8078C11.4217 26.0346 11.5084 26.2508 11.6344 26.444C12.3124 27.661 13.5834 29.78 14.5124 31.327C14.9344 32.027 15.2844 32.613 15.4744 32.937C16.087 34.0154 16.9739 34.9127 18.0452 35.5378C19.1165 36.1628 20.3341 36.4934 21.5744 36.496C23.4944 36.462 25.3227 35.6682 26.6584 34.2886C27.9942 32.909 28.7285 31.0561 28.7004 29.136V23.053C28.7033 22.5381 28.5017 22.0431 28.1397 21.6769C27.7778 21.3106 27.2853 21.1031 26.7704 21.1ZM27.6974 29.132C27.728 30.7878 27.1005 32.3882 25.9526 33.582C24.8047 34.7758 23.2302 35.4655 21.5744 35.5C20.5088 35.4964 19.4631 35.2111 18.5434 34.673C17.6237 34.1349 16.8626 33.3631 16.3374 32.436C16.1464 32.11 15.7944 31.523 15.3704 30.816C14.4454 29.275 13.1784 27.164 12.4794 25.916C12.4185 25.8277 12.3771 25.7276 12.3579 25.6222C12.3386 25.5167 12.342 25.4084 12.3678 25.3044C12.3937 25.2004 12.4413 25.103 12.5076 25.0188C12.5739 24.9346 12.6573 24.8655 12.7524 24.816C13.0454 24.595 14.2354 25.224 15.9524 27.322C16.0178 27.4014 16.1062 27.4588 16.2054 27.4861C16.3047 27.5135 16.4099 27.5096 16.5068 27.4749C16.6038 27.4402 16.6876 27.3765 16.747 27.2924C16.8063 27.2083 16.8382 27.1079 16.8384 27.005V16.1C16.8419 15.9662 16.8723 15.8346 16.9276 15.7128C16.9829 15.591 17.0621 15.4816 17.1605 15.391C17.2588 15.3003 17.3744 15.2304 17.5003 15.1852C17.6262 15.14 17.7599 15.1205 17.8934 15.128C18.1368 15.1218 18.3732 15.2092 18.554 15.3722C18.7348 15.5352 18.8463 15.7613 18.8654 16.004V21.348V24.142C18.8654 24.2746 18.9181 24.4017 19.0119 24.4955C19.1056 24.5893 19.2328 24.642 19.3654 24.642C19.498 24.642 19.6252 24.5893 19.719 24.4955C19.8127 24.4017 19.8654 24.2746 19.8654 24.142V21.352C19.87 21.219 19.9011 21.0883 19.9568 20.9676C20.0125 20.8468 20.0918 20.7383 20.1899 20.6486C20.2881 20.5588 20.4031 20.4895 20.5284 20.4447C20.6537 20.4 20.7866 20.3807 20.9194 20.388C21.1769 20.3885 21.4238 20.4911 21.6058 20.6733C21.7878 20.8555 21.8901 21.1024 21.8904 21.36V24.138C21.8904 24.2706 21.9431 24.3977 22.0369 24.4915C22.1306 24.5853 22.2578 24.638 22.3904 24.638C22.523 24.638 22.6502 24.5853 22.744 24.4915C22.8377 24.3977 22.8904 24.2706 22.8904 24.138V22.288C22.8924 22.0077 23.0037 21.7394 23.2005 21.5399C23.3974 21.3405 23.6642 21.2257 23.9444 21.22C24.2113 21.2428 24.4598 21.3655 24.6403 21.5634C24.8208 21.7614 24.9201 22.0201 24.9184 22.288V24.138C24.9184 24.2706 24.9711 24.3977 25.0649 24.4915C25.1586 24.5853 25.2858 24.638 25.4184 24.638C25.551 24.638 25.6782 24.5853 25.772 24.4915C25.8657 24.3977 25.9184 24.2706 25.9184 24.138V23.053C25.9186 22.8051 26.0156 22.5671 26.1888 22.3898C26.362 22.2125 26.5976 22.11 26.8454 22.104C27.0809 22.1258 27.2995 22.2357 27.4576 22.4115C27.6157 22.5874 27.7017 22.8165 27.6984 23.053L27.6974 29.132Z" fill="#6B7280"/>
<path d="M20.9 18.1269C20.9567 18.1601 21.0194 18.1817 21.0845 18.1905C21.1496 18.1994 21.2158 18.1954 21.2793 18.1787C21.3428 18.1619 21.4024 18.1329 21.4547 18.0931C21.507 18.0534 21.5509 18.0037 21.584 17.9469C21.9153 17.3774 22.111 16.7393 22.156 16.082C22.201 15.4247 22.094 14.7658 21.8433 14.1565C21.5926 13.5472 21.2049 13.0038 20.7104 12.5684C20.2159 12.1331 19.6278 11.8174 18.9916 11.646C18.3554 11.4745 17.6883 11.4519 17.042 11.5798C16.3957 11.7077 15.7875 11.9827 15.2646 12.3835C14.7417 12.7844 14.3181 13.3002 14.0266 13.8911C13.7352 14.482 13.5837 15.1321 13.584 15.7909C13.5818 16.466 13.7409 17.1318 14.048 17.7329C14.0778 17.7915 14.1187 17.8437 14.1686 17.8864C14.2185 17.9291 14.2763 17.9616 14.3388 17.982C14.4012 18.0024 14.4671 18.0102 14.5326 18.0052C14.5981 18.0001 14.6619 17.9822 14.7205 17.9524C14.7791 17.9227 14.8312 17.8817 14.8739 17.8318C14.9167 17.7819 14.9492 17.7241 14.9695 17.6617C14.9899 17.5992 14.9978 17.5334 14.9927 17.4679C14.9877 17.4024 14.9698 17.3385 14.94 17.2799C14.7044 16.8191 14.5823 16.3086 14.584 15.7909C14.5839 15.2858 14.7001 14.7874 14.9236 14.3343C15.1471 13.8813 15.4719 13.4858 15.8729 13.1785C16.2738 12.8711 16.7401 12.6602 17.2356 12.5621C17.7312 12.4639 18.2426 12.4812 18.7304 12.6125C19.2183 12.7438 19.6693 12.9857 20.0486 13.3193C20.4279 13.6529 20.7253 14.0694 20.9178 14.5365C21.1102 15.0036 21.1926 15.5087 21.1585 16.0127C21.1244 16.5167 20.9747 17.0061 20.721 17.4429C20.6541 17.5574 20.6353 17.6937 20.6689 17.822C20.7024 17.9503 20.7856 18.06 20.9 18.1269Z" fill="#6B7280"/>
</svg>
