<svg width="40" height="40" viewBox="0 0 40 40" fill="none" xmlns="http://www.w3.org/2000/svg">
<path d="M35.5 5H4.5C4.36739 5 4.24021 5.05268 4.14645 5.14645C4.05268 5.24021 4 5.36739 4 5.5V24.5C4 24.6326 4.05268 24.7598 4.14645 24.8536C4.24021 24.9473 4.36739 25 4.5 25H6.5C6.63261 25 6.75979 24.9473 6.85355 24.8536C6.94732 24.7598 7 24.6326 7 24.5C7 24.3674 6.94732 24.2402 6.85355 24.1464C6.75979 24.0527 6.63261 24 6.5 24H5V6H35V24H23.5C23.3674 24 23.2402 24.0527 23.1464 24.1464C23.0527 24.2402 23 24.3674 23 24.5C23 24.6326 23.0527 24.7598 23.1464 24.8536C23.2402 24.9473 23.3674 25 23.5 25H35.5C35.6326 25 35.7598 24.9473 35.8536 24.8536C35.9473 24.7598 36 24.6326 36 24.5V5.5C36 5.36739 35.9473 5.24021 35.8536 5.14645C35.7598 5.05268 35.6326 5 35.5 5Z" fill="#6B7280"/>
<path d="M33.5 14C33.6326 14 33.7598 13.9473 33.8536 13.8536C33.9473 13.7598 34 13.6326 34 13.5V7.5C34 7.36739 33.9473 7.24021 33.8536 7.14645C33.7598 7.05268 33.6326 7 33.5 7H27.5C27.3674 7 27.2402 7.05268 27.1464 7.14645C27.0527 7.24021 27 7.36739 27 7.5C27 7.63261 27.0527 7.75979 27.1464 7.85355C27.2402 7.94732 27.3674 8 27.5 8H33V13.5C33 13.6326 33.0527 13.7598 33.1464 13.8536C33.2402 13.9473 33.3674 14 33.5 14Z" fill="#6B7280"/>
<path d="M21.2444 15.4C21.4812 15.2464 21.6759 15.036 21.8107 14.788C21.9455 14.54 22.0162 14.2623 22.0164 13.98C22.016 13.7112 21.9603 13.4454 21.8526 13.1992C21.7449 12.9529 21.5877 12.7315 21.3906 12.5487C21.1936 12.3659 20.961 12.2257 20.7073 12.1368C20.4537 12.0479 20.1844 12.0122 19.9164 12.032C19.6475 12.0111 19.3772 12.0459 19.1223 12.134C18.8674 12.2222 18.6334 12.3619 18.4349 12.5445C18.2364 12.7271 18.0776 12.9486 17.9684 13.1952C17.8593 13.4418 17.8021 13.7083 17.8004 13.978C17.8006 14.2603 17.8713 14.538 18.0061 14.786C18.1409 15.034 18.3356 15.2444 18.5724 15.398C18.3075 15.5567 18.0888 15.782 17.9381 16.0515C17.7874 16.321 17.7099 16.6253 17.7134 16.934C17.707 17.2177 17.7608 17.4996 17.8713 17.761C17.9817 18.0224 18.1462 18.2574 18.3541 18.4506C18.5619 18.6438 18.8084 18.7908 19.0771 18.8819C19.3459 18.973 19.6309 19.0061 19.9134 18.979C20.1959 19.0061 20.4809 18.973 20.7497 18.8819C21.0184 18.7908 21.2649 18.6438 21.4727 18.4506C21.6806 18.2574 21.8451 18.0224 21.9555 17.761C22.066 17.4996 22.1198 17.2177 22.1134 16.934C22.1148 16.6248 22.0354 16.3205 21.883 16.0514C21.7305 15.7823 21.5104 15.5578 21.2444 15.4ZM19.9134 13.155C20.0845 13.1538 20.2522 13.2035 20.395 13.2977C20.5379 13.3919 20.6496 13.5264 20.7159 13.6842C20.7822 13.842 20.8002 14.0159 20.7675 14.1839C20.7349 14.3519 20.6531 14.5064 20.5325 14.6278C20.4119 14.7492 20.2579 14.8321 20.0902 14.866C19.9224 14.8998 19.7484 14.883 19.5902 14.8178C19.4319 14.7526 19.2966 14.6419 19.2014 14.4996C19.1062 14.3574 19.0554 14.1902 19.0554 14.019C19.0511 13.9048 19.0703 13.791 19.1118 13.6845C19.1533 13.578 19.2162 13.4812 19.2966 13.4C19.3771 13.3188 19.4733 13.255 19.5794 13.2125C19.6855 13.17 19.7992 13.1498 19.9134 13.153V13.155ZM19.9134 17.855C19.7263 17.855 19.5434 17.7995 19.3879 17.6954C19.2324 17.5913 19.1112 17.4435 19.0399 17.2705C18.9685 17.0975 18.9501 16.9073 18.9869 16.7238C19.0238 16.5404 19.1143 16.372 19.247 16.24C19.3796 16.1081 19.5485 16.0185 19.7321 15.9826C19.9158 15.9467 20.1059 15.9661 20.2785 16.0384C20.4511 16.1107 20.5983 16.2326 20.7016 16.3886C20.8048 16.5447 20.8594 16.7279 20.8584 16.915C20.8595 17.0392 20.8357 17.1623 20.7886 17.2772C20.7414 17.392 20.6717 17.4963 20.5837 17.5839C20.4957 17.6714 20.391 17.7405 20.2759 17.7871C20.1608 17.8337 20.0376 17.8568 19.9134 17.855Z" fill="#6B7280"/>
<path d="M25.0645 12.0869V14.2659L26.3765 13.2769V12.0869H25.0645Z" fill="#6B7280"/>
<path d="M24.341 12.0869H23.04V14.2659L24.341 13.2769V12.0869Z" fill="#6B7280"/>
<path d="M19.7704 24.118C19.3949 24.1208 19.0303 24.2442 18.7304 24.47C18.5738 24.104 18.3135 23.7918 17.9815 23.5722C17.6495 23.3525 17.2604 23.2349 16.8624 23.234C16.451 23.239 16.0527 23.3796 15.7294 23.634C15.5736 23.262 15.3097 22.9454 14.9717 22.7254C14.6338 22.5053 14.2375 22.3919 13.8344 22.4C13.488 22.402 13.1485 22.497 12.8514 22.675V18.999C12.8388 18.4685 12.616 17.9648 12.232 17.5987C11.848 17.2325 11.3343 17.0339 10.8039 17.0465C10.2734 17.0591 9.76972 17.2819 9.40355 17.6658C9.03739 18.0498 8.83875 18.5635 8.85135 19.094V28.708C7.58635 27.362 6.13535 26.29 5.15135 27.028C4.959 27.1524 4.79311 27.3136 4.6632 27.5023C4.5333 27.691 4.44194 27.9035 4.39437 28.1276C4.3468 28.3517 4.34395 28.583 4.38599 28.8082C4.42803 29.0334 4.51413 29.2481 4.63935 29.44C5.31735 30.657 6.58835 32.776 7.51735 34.323C7.93935 35.023 8.28935 35.609 8.47835 35.933C9.08971 37.0096 9.97503 37.9052 11.0444 38.5291C12.1139 39.1529 13.3293 39.4827 14.5674 39.485C16.484 39.4505 18.3088 38.6574 19.6416 37.2796C20.9744 35.9018 21.7065 34.0517 21.6774 32.135V26.053C21.6792 25.544 21.4798 25.055 21.1226 24.6925C20.7653 24.33 20.2793 24.1235 19.7704 24.118ZM20.7114 32.136C20.7406 33.7948 20.111 35.3975 18.9607 36.593C17.8104 37.7885 16.2331 38.4793 14.5744 38.514C13.5063 38.5105 12.4582 38.2246 11.5363 37.6852C10.6145 37.1459 9.85169 36.3723 9.32535 35.443C9.13435 35.117 8.78235 34.53 8.35835 33.823C7.43335 32.282 6.16635 30.171 5.46735 28.923C5.40539 28.8334 5.36321 28.7316 5.34359 28.6245C5.32397 28.5173 5.32738 28.4072 5.35358 28.3015C5.37977 28.1957 5.42817 28.0968 5.49554 28.0112C5.56292 27.9256 5.64773 27.8553 5.74435 27.805C6.04435 27.58 7.23835 28.205 8.96435 30.312C9.02804 30.3893 9.11404 30.4452 9.21062 30.4719C9.30721 30.4986 9.40967 30.4948 9.50405 30.4611C9.59843 30.4274 9.68011 30.3655 9.73797 30.2837C9.79583 30.2018 9.82704 30.1042 9.82735 30.004V19.1C9.83007 18.9642 9.86018 18.8305 9.91586 18.7067C9.97154 18.5829 10.0516 18.4716 10.1514 18.3795C10.2511 18.2875 10.3684 18.2165 10.4963 18.1708C10.6241 18.1252 10.7599 18.1059 10.8954 18.114C11.1422 18.1083 11.3818 18.1974 11.565 18.363C11.7481 18.5285 11.861 18.7578 11.8804 19.004V24.348V24.365V24.373V27.142C11.8804 27.271 11.9315 27.3947 12.0226 27.486C12.1138 27.5773 12.2374 27.6287 12.3664 27.629C12.4952 27.629 12.6189 27.5778 12.71 27.4866C12.8011 27.3955 12.8524 27.2719 12.8524 27.143V24.357C12.856 24.222 12.8868 24.0891 12.9428 23.9662C12.9988 23.8434 13.079 23.7331 13.1786 23.6418C13.2781 23.5506 13.395 23.4803 13.5223 23.4351C13.6495 23.39 13.7846 23.3709 13.9194 23.379C14.1807 23.3792 14.4312 23.4832 14.6159 23.6681C14.8006 23.853 14.9044 24.1036 14.9044 24.365V27.143C14.91 27.2682 14.9638 27.3864 15.0544 27.473C15.145 27.5596 15.2655 27.6079 15.3909 27.6079C15.5162 27.6079 15.6367 27.5596 15.7273 27.473C15.8179 27.3864 15.8717 27.2682 15.8774 27.143V25.293C15.8796 25.0092 15.9925 24.7375 16.1919 24.5357C16.3914 24.3338 16.6616 24.2177 16.9454 24.212C17.2157 24.2349 17.4675 24.3589 17.6505 24.5593C17.8334 24.7596 17.9341 25.0216 17.9324 25.293V27.143C17.938 27.2682 17.9918 27.3864 18.0824 27.473C18.173 27.5596 18.2935 27.6079 18.4189 27.6079C18.5442 27.6079 18.6647 27.5596 18.7553 27.473C18.8459 27.3864 18.8997 27.2682 18.9054 27.143V26.053C18.9058 25.8015 19.0044 25.5601 19.1802 25.3802C19.3559 25.2004 19.5949 25.0962 19.8464 25.09C20.0855 25.1121 20.3075 25.2235 20.4682 25.4019C20.6288 25.5804 20.7164 25.8128 20.7134 26.053L20.7114 32.136Z" fill="#6B7280"/>
<path d="M13.8998 21.115C14.0112 21.1798 14.1438 21.1977 14.2685 21.1649C14.3931 21.1321 14.4997 21.0512 14.5648 20.94C14.9366 20.2989 15.1354 19.5722 15.1417 18.8312C15.148 18.0901 14.9616 17.3602 14.6008 16.7129C14.24 16.0656 13.7171 15.5232 13.0835 15.1388C12.4499 14.7545 11.7272 14.5414 10.9865 14.5205C10.2457 14.4996 9.51218 14.6716 8.85789 15.0196C8.20361 15.3676 7.651 15.8796 7.25425 16.5056C6.8575 17.1315 6.63024 17.8498 6.59475 18.59C6.55926 19.3302 6.71676 20.067 7.0518 20.728C7.11346 20.8375 7.21507 20.9189 7.33538 20.9553C7.45569 20.9916 7.58538 20.98 7.69734 20.9229C7.80931 20.8658 7.89487 20.7677 7.93614 20.649C7.97741 20.5303 7.9712 20.4002 7.9188 20.286C7.68208 19.8216 7.55969 19.3073 7.5618 18.786C7.56455 18.281 7.68316 17.7834 7.90849 17.3315C8.13381 16.8796 8.45985 16.4854 8.8615 16.1793C9.26314 15.8732 9.72967 15.6634 10.2252 15.566C10.7207 15.4685 11.2319 15.4861 11.7195 15.6174C12.2072 15.7487 12.6582 15.9901 13.0378 16.3231C13.4174 16.6561 13.7156 17.0717 13.9093 17.5381C14.103 18.0045 14.1871 18.509 14.1551 19.013C14.1231 19.517 13.9759 20.0069 13.7248 20.445C13.6918 20.5004 13.6702 20.5617 13.6611 20.6255C13.652 20.6893 13.6558 20.7543 13.6721 20.8166C13.6883 20.879 13.7169 20.9375 13.756 20.9887C13.7951 21.0399 13.844 21.0828 13.8998 21.115Z" fill="#6B7280"/>
</svg>
