<svg width="40" height="40" viewBox="0 0 40 40" fill="none" xmlns="http://www.w3.org/2000/svg">
<path d="M39.2075 24.731C39.1572 24.6685 39.1127 24.6016 39.0745 24.531C39.059 24.111 39.0862 23.6906 39.1555 23.276L39.1855 23.032C39.2055 22.9252 39.202 22.8153 39.1752 22.71C39.1484 22.6046 39.0991 22.5064 39.0305 22.422C38.8195 22.189 38.5505 22.193 38.1485 22.198H37.8665C37.0819 22.1517 36.3114 21.9689 35.5895 21.658C35.2525 21.544 34.8635 21.412 34.3995 21.263C33.8765 21.093 33.4685 20.922 33.0885 20.763C31.6304 20.1118 30.0366 19.8219 28.4425 19.918C26.9623 19.9061 25.5113 20.3293 24.2695 21.135C24.0145 21.281 23.7635 21.423 23.5025 21.551C22.7385 21.925 22.1725 22.233 21.8155 22.427C21.5698 22.5786 21.3078 22.7021 21.0345 22.795C20.8916 22.8266 20.7459 22.8437 20.5995 22.846C20.3281 22.8569 20.058 22.8887 19.7915 22.941L19.3495 23.028C18.257 23.2052 17.185 23.4913 16.1495 23.882C15.0695 24.352 14.7285 24.553 14.3945 25.069C14.0891 25.9044 13.9863 26.8002 14.0945 27.683V27.836C14.0945 28.062 14.0945 28.751 16.2575 28.846L17.0745 28.938C17.3054 29.2693 17.6143 29.5385 17.9739 29.7219C18.3336 29.9054 18.7329 29.9973 19.1366 29.9897C19.5402 29.9821 19.9358 29.8751 20.2883 29.6783C20.6408 29.4814 20.9393 29.2007 21.1575 28.861C21.2492 28.9499 21.3718 28.9997 21.4995 29H31.4995C31.6254 28.9995 31.7463 28.9509 31.8375 28.864C32.0689 29.2265 32.3916 29.5217 32.7732 29.7201C33.1548 29.9184 33.5818 30.0128 34.0115 29.9939C34.4411 29.9749 34.8582 29.8433 35.2208 29.6121C35.5835 29.381 35.8789 29.0585 36.0775 28.677C36.5025 28.615 37.3645 28.486 37.8935 28.383C38.6685 28.233 38.8535 28.061 39.1305 27.506L39.1975 27.373C39.4862 26.9081 39.6383 26.3713 39.6365 25.824C39.6243 25.421 39.4727 25.0347 39.2075 24.731ZM19.0995 29C18.8089 29.0002 18.5248 28.9142 18.2831 28.7529C18.0414 28.5917 17.853 28.3623 17.7416 28.0939C17.6303 27.8255 17.6011 27.5301 17.6576 27.2451C17.7142 26.96 17.854 26.6982 18.0594 26.4926C18.2648 26.2871 18.5266 26.1471 18.8116 26.0903C19.0965 26.0336 19.392 26.0626 19.6604 26.1738C19.9289 26.2849 20.1584 26.4732 20.3199 26.7148C20.4813 26.9564 20.5675 27.2404 20.5675 27.531C20.567 27.9203 20.4122 28.2935 20.137 28.5688C19.8619 28.8442 19.4888 28.9992 19.0995 29ZM33.9095 29C33.6189 29.0002 33.3348 28.9142 33.0931 28.7529C32.8514 28.5917 32.663 28.3623 32.5516 28.0939C32.4403 27.8255 32.4111 27.5301 32.4676 27.2451C32.5242 26.96 32.664 26.6982 32.8694 26.4926C33.0748 26.2871 33.3366 26.1471 33.6216 26.0903C33.9065 26.0336 34.202 26.0626 34.4704 26.1738C34.7389 26.2849 34.9684 26.4732 35.1299 26.7148C35.2913 26.9564 35.3775 27.2404 35.3775 27.531C35.377 27.9206 35.2219 28.2941 34.9463 28.5695C34.6707 28.8449 34.2971 28.9998 33.9075 29H33.9095ZM38.3095 26.921L38.2375 27.065C38.1065 27.328 38.1065 27.328 37.7065 27.406C37.3355 27.477 36.7975 27.562 36.3685 27.627C36.3685 27.595 36.3785 27.564 36.3785 27.527C36.3787 27.1826 36.3069 26.842 36.1676 26.5271C36.0283 26.2121 35.8246 25.9298 35.5697 25.6982C35.3148 25.4666 35.0143 25.2909 34.6875 25.1824C34.3606 25.0739 34.0147 25.035 33.6719 25.0681C33.3291 25.1013 32.9971 25.2058 32.6971 25.3749C32.397 25.544 32.1357 25.774 31.9299 26.0501C31.7241 26.3262 31.5783 26.6424 31.502 26.9782C31.4256 27.314 31.4203 27.6621 31.4865 28H21.5185C21.549 27.8442 21.5647 27.6858 21.5655 27.527C21.5525 26.8809 21.2867 26.2657 20.8252 25.8134C20.3637 25.3611 19.7432 25.1077 19.097 25.1077C18.4508 25.1077 17.8303 25.3611 17.3688 25.8134C16.9073 26.2657 16.6415 26.8809 16.6285 27.527C16.6316 27.6491 16.644 27.7708 16.6655 27.891L16.3435 27.855C15.9232 27.8427 15.506 27.7782 15.1015 27.663C15.0403 26.9788 15.0862 26.2891 15.2375 25.619C15.4025 25.363 15.5045 25.26 16.5515 24.805C17.5202 24.4455 18.5216 24.1813 19.5415 24.016L19.9895 23.927C20.2099 23.8845 20.4332 23.8587 20.6575 23.85C20.8669 23.8441 21.0753 23.8177 21.2795 23.771C21.662 23.6489 22.0283 23.4811 22.3705 23.271C22.6445 23.122 23.1965 22.822 23.9425 22.457C24.2215 22.319 24.4905 22.167 24.7635 22.012C25.8555 21.2941 27.1357 20.9159 28.4425 20.925C29.9044 20.8268 31.3679 21.0906 32.7035 21.693C33.1035 21.86 33.5375 22.041 34.0915 22.22C34.5505 22.368 34.9355 22.499 35.2695 22.611C36.0938 22.9624 36.9744 23.1633 37.8695 23.204H38.1605C38.0436 23.7517 38.0347 24.317 38.1345 24.868C38.2027 25.0368 38.2961 25.1943 38.4115 25.335C38.5432 25.467 38.6239 25.6413 38.6395 25.827C38.6386 26.2153 38.5228 26.5946 38.3065 26.917L38.3095 26.921Z" fill="#6B7280"/>
<path d="M11.0746 24.5341C11.0592 24.1141 11.0863 23.6936 11.1556 23.2791L11.1856 23.0351C11.2056 22.9282 11.2021 22.8183 11.1753 22.713C11.1486 22.6077 11.0992 22.5094 11.0306 22.4251C10.8196 22.1921 10.5516 22.1961 10.1486 22.2011H9.86665C9.08204 22.1547 8.31152 21.9719 7.58965 21.6611C7.25265 21.5471 6.86365 21.4151 6.39965 21.2661C5.87665 21.0961 5.46865 20.9251 5.08865 20.7661C3.96957 20.2509 2.75636 19.9717 1.52465 19.9461C1.45899 19.9428 1.39332 19.9525 1.3314 19.9746C1.26948 19.9966 1.21252 20.0307 1.16377 20.0748C1.11502 20.1189 1.07544 20.1722 1.04728 20.2316C1.01911 20.291 1.00293 20.3554 0.999648 20.4211C0.996365 20.4867 1.00605 20.5524 1.02814 20.6143C1.05024 20.6762 1.08431 20.7332 1.12842 20.7819C1.17252 20.8307 1.2258 20.8703 1.28521 20.8984C1.34462 20.9266 1.40899 20.9428 1.47465 20.9461C2.59087 20.9671 3.6905 21.2201 4.70365 21.6891C5.10365 21.8571 5.53765 22.0381 6.09165 22.2171C6.55065 22.3651 6.93565 22.4961 7.26965 22.6081C8.09393 22.9595 8.97452 23.1603 9.86965 23.2011H10.1606C10.0437 23.7487 10.0349 24.314 10.1346 24.8651C10.2028 25.0338 10.2962 25.1913 10.4116 25.3321C10.5433 25.464 10.6241 25.6383 10.6396 25.8241C10.6403 26.213 10.5254 26.5934 10.3096 26.9171L10.2376 27.0611C10.1066 27.3241 10.1066 27.3241 9.70665 27.4021C9.33565 27.4731 8.79765 27.5581 8.36865 27.6231C8.36865 27.5911 8.37865 27.5601 8.37865 27.5231C8.37828 27.1788 8.30594 26.8385 8.16628 26.5239C8.02661 26.2093 7.8227 25.9274 7.56765 25.6962C7.31259 25.4651 7.01201 25.2898 6.68522 25.1817C6.35843 25.0735 6.01264 25.0349 5.67004 25.0683C5.32745 25.1017 4.99563 25.2064 4.69588 25.3756C4.39613 25.5449 4.13507 25.7749 3.92947 26.051C3.72387 26.327 3.57827 26.643 3.502 26.9787C3.42574 27.3144 3.42051 27.6623 3.48665 28.0001H1.49965C1.36704 28.0001 1.23986 28.0527 1.14609 28.1465C1.05233 28.2403 0.999648 28.3675 0.999648 28.5001C0.999648 28.6327 1.05233 28.7598 1.14609 28.8536C1.23986 28.9474 1.36704 29.0001 1.49965 29.0001H3.49965C3.62555 28.9995 3.74648 28.9509 3.83765 28.8641C4.06904 29.2266 4.39174 29.5218 4.77333 29.7201C5.15492 29.9184 5.58197 30.0128 6.0116 29.9939C6.44123 29.9749 6.85831 29.8433 7.22096 29.6121C7.58362 29.381 7.87907 29.0585 8.07765 28.6771C8.50265 28.6151 9.36465 28.4861 9.89365 28.3831C10.6686 28.2331 10.8536 28.0611 11.1306 27.5061L11.1976 27.3731C11.4863 26.9081 11.6384 26.3713 11.6366 25.8241C11.6244 25.4211 11.4728 25.0348 11.2076 24.7311C11.1575 24.6695 11.113 24.6036 11.0746 24.5341ZM5.90765 29.0001C5.61706 29.0003 5.33295 28.9143 5.09124 28.753C4.84954 28.5917 4.66109 28.3623 4.54976 28.0939C4.43842 27.8255 4.40918 27.5301 4.46575 27.2451C4.52232 26.9601 4.66215 26.6982 4.86755 26.4927C5.07296 26.2871 5.33471 26.1471 5.61969 26.0904C5.90468 26.0336 6.2001 26.0626 6.46858 26.1738C6.73706 26.2849 6.96655 26.4732 7.12801 26.7148C7.28947 26.9564 7.37565 27.2405 7.37565 27.5311C7.37512 27.9203 7.22032 28.2935 6.94516 28.5689C6.67 28.8442 6.29692 28.9993 5.90765 29.0001Z" fill="#6B7280"/>
<path d="M31.4999 32H22.7069L22.8539 31.854C22.9478 31.7601 23.0005 31.6328 23.0005 31.5C23.0005 31.3672 22.9478 31.2399 22.8539 31.146C22.76 31.0521 22.6327 30.9994 22.4999 30.9994C22.3671 30.9994 22.2398 31.0521 22.1459 31.146L21.1459 32.146C21.0994 32.1925 21.0624 32.2476 21.0372 32.3084C21.012 32.3691 20.999 32.4343 20.999 32.5C20.999 32.5658 21.012 32.6309 21.0372 32.6917C21.0624 32.7524 21.0994 32.8076 21.1459 32.854L22.1459 33.854C22.1924 33.9005 22.2476 33.9374 22.3083 33.9625C22.3691 33.9877 22.4342 34.0007 22.4999 34.0007C22.5657 34.0007 22.6308 33.9877 22.6915 33.9625C22.7522 33.9374 22.8074 33.9005 22.8539 33.854C22.9004 33.8075 22.9373 33.7523 22.9624 33.6916C22.9876 33.6309 23.0005 33.5658 23.0005 33.5C23.0005 33.4343 22.9876 33.3692 22.9624 33.3084C22.9373 33.2477 22.9004 33.1925 22.8539 33.146L22.7069 33H31.4999C31.6325 33 31.7597 32.9473 31.8535 32.8536C31.9472 32.7598 31.9999 32.6326 31.9999 32.5C31.9999 32.3674 31.9472 32.2402 31.8535 32.1465C31.7597 32.0527 31.6325 32 31.4999 32Z" fill="#6B7280"/>
<path d="M8.87028 19H18.1303C18.3613 18.9928 18.5862 18.9241 18.7818 18.8011C18.9774 18.678 19.1367 18.5051 19.2433 18.3C19.395 18.0574 19.4825 17.7803 19.4975 17.4946C19.5126 17.2089 19.4547 16.9241 19.3293 16.667L14.7003 8.25099C14.5822 8.03597 14.4086 7.85663 14.1975 7.73172C13.9864 7.6068 13.7456 7.54089 13.5003 7.54089C13.255 7.54089 13.0142 7.6068 12.8031 7.73172C12.592 7.85663 12.4183 8.03597 12.3003 8.25099L7.67028 16.67C7.54559 16.9268 7.48816 17.2111 7.50337 17.4962C7.51859 17.7813 7.60596 18.0579 7.75728 18.3C7.86384 18.5051 8.02313 18.678 8.21876 18.8011C8.4144 18.9241 8.63929 18.9928 8.87028 19ZM8.54728 17.151L13.1783 8.73199C13.21 8.67422 13.2567 8.62605 13.3134 8.59249C13.3702 8.55894 13.4349 8.54123 13.5008 8.54123C13.5667 8.54123 13.6314 8.55894 13.6881 8.59249C13.7449 8.62605 13.7915 8.67422 13.8233 8.73199L18.4533 17.15C18.4916 17.2553 18.5051 17.3679 18.4928 17.4793C18.4805 17.5906 18.4426 17.6976 18.3823 17.792C18.3233 17.892 18.2263 17.999 18.1303 17.999H8.87028C8.77028 17.999 8.67728 17.892 8.61828 17.792C8.55808 17.6977 8.52036 17.5909 8.50805 17.4798C8.49573 17.3686 8.50916 17.2561 8.54728 17.151Z" fill="#6B7280"/>
<path d="M13.4998 17C13.5977 16.9986 13.693 16.9686 13.7739 16.9135C13.8549 16.8585 13.9179 16.7809 13.9551 16.6904C13.9924 16.5999 14.0023 16.5005 13.9836 16.4044C13.9648 16.3084 13.9183 16.2199 13.8498 16.15C13.7563 16.0584 13.6307 16.0071 13.4998 16.0071C13.3689 16.0071 13.2433 16.0584 13.1498 16.15C13.0813 16.2199 13.0348 16.3084 13.0161 16.4044C12.9973 16.5005 13.0072 16.5999 13.0445 16.6904C13.0818 16.7809 13.1448 16.8585 13.2257 16.9135C13.3066 16.9686 13.4019 16.9986 13.4998 17Z" fill="#6B7280"/>
<path d="M13.5 15C13.6326 15 13.7598 14.9473 13.8536 14.8536C13.9473 14.7598 14 14.6326 14 14.5V11.5C14 11.3674 13.9473 11.2402 13.8536 11.1464C13.7598 11.0527 13.6326 11 13.5 11C13.3674 11 13.2402 11.0527 13.1464 11.1464C13.0527 11.2402 13 11.3674 13 11.5V14.5C13 14.6326 13.0527 14.7598 13.1464 14.8536C13.2402 14.9473 13.3674 15 13.5 15Z" fill="#6B7280"/>
</svg>
