<svg width="19" height="18" viewBox="0 0 19 18" fill="none" xmlns="http://www.w3.org/2000/svg">
<g clip-path="url(#clip0_6796_3103)">
<path fill-rule="evenodd" clip-rule="evenodd" d="M18.14 8.71701C18.14 8.14092 18.0871 7.59316 17.9812 7.07373H9.5V10.1714H14.3494C14.2493 10.6636 14.0382 11.1326 13.7288 11.5498C13.4194 11.967 13.0181 12.3238 12.5494 12.5986V14.6102H15.4506C16.3374 13.8512 17.0352 12.9343 17.4986 11.9189C17.962 10.9036 18.1805 9.81264 18.14 8.71701Z" fill="#4285F4"/>
<path fill-rule="evenodd" clip-rule="evenodd" d="M9.49994 16.5559C11.6928 16.6112 13.8261 15.915 15.4611 14.6104L12.5493 12.5987C11.6403 13.1166 10.5782 13.3797 9.49994 13.3543C8.37753 13.3437 7.28721 13.0189 6.38289 12.4258C5.47857 11.8327 4.80593 11.0013 4.45994 10.0488H1.45288V12.1265C2.20142 13.4581 3.35054 14.5775 4.77169 15.3598C6.19284 16.142 7.82997 16.5562 9.49994 16.5559Z" fill="#34A853"/>
<path fill-rule="evenodd" clip-rule="evenodd" d="M4.46 10.0579C4.09023 9.06779 4.09023 7.99748 4.46 7.0074V4.92969H1.45294C0.825369 6.0465 0.499047 7.27867 0.500002 8.52791C0.500002 9.82176 0.849414 11.0495 1.45294 12.1356L4.46 10.0579Z" fill="#FBBC05"/>
<path fill-rule="evenodd" clip-rule="evenodd" d="M9.49994 3.69272C10.7791 3.6739 12.0152 4.10474 12.9411 4.89212L15.5246 2.58775C13.8942 1.22388 11.7351 0.475898 9.49994 0.500593C7.83108 0.499413 6.19472 0.912133 4.77368 1.69264C3.35264 2.47315 2.20289 3.59071 1.45288 4.92046L4.45994 6.99817C4.80593 6.04574 5.47857 5.21428 6.38289 4.62119C7.28721 4.0281 8.37753 3.70333 9.49994 3.69272Z" fill="#EA4335"/>
</g>
<defs>
<clipPath id="clip0_6796_3103">
<rect width="18" height="17.0001" fill="white" transform="translate(0.5 0.5)"/>
</clipPath>
</defs>
</svg>
