<svg width="34" height="34" viewBox="0 0 34 34" fill="none" xmlns="http://www.w3.org/2000/svg">
<circle cx="17" cy="17" r="16" stroke="#656565" stroke-width="2"/>
<path d="M25 26V24C25 22.9391 24.5786 21.9217 23.8284 21.1716C23.0783 20.4214 22.0609 20 21 20H13C11.9391 20 10.9217 20.4214 10.1716 21.1716C9.42143 21.9217 9 22.9391 9 24V26" stroke="#656565" stroke-width="2" stroke-linecap="round" stroke-linejoin="round"/>
<path d="M17 16C19.2091 16 21 14.2091 21 12C21 9.79086 19.2091 8 17 8C14.7909 8 13 9.79086 13 12C13 14.2091 14.7909 16 17 16Z" stroke="#656565" stroke-width="2" stroke-linecap="round" stroke-linejoin="round"/>
</svg>
