<svg width="20" height="21" viewBox="0 0 20 21" fill="none" xmlns="http://www.w3.org/2000/svg">
<path d="M1 10.6221L3 8.62207M3 8.62207L10 1.62207L17 8.62207M3 8.62207V18.6221C3 19.1744 3.44772 19.6221 4 19.6221H7M17 8.62207L19 10.6221M17 8.62207V18.6221C17 19.1744 16.5523 19.6221 16 19.6221H13M7 19.6221C7.55228 19.6221 8 19.1744 8 18.6221V14.6221C8 14.0698 8.44772 13.6221 9 13.6221H11C11.5523 13.6221 12 14.0698 12 14.6221V18.6221C12 19.1744 12.4477 19.6221 13 19.6221M7 19.6221H13" stroke="#9CA3AF" stroke-width="1.5" stroke-linecap="round" stroke-linejoin="round"/>
</svg>
