<svg width="19" height="18" viewBox="0 0 19 18" fill="none" xmlns="http://www.w3.org/2000/svg">
<g clip-path="url(#clip0_6796_3112)">
<path d="M17.9 1.72795C17.1971 2.20962 16.4257 2.55907 15.6114 2.74796C15.278 2.34327 14.873 2.01788 14.4214 1.79175C13.9698 1.56561 13.481 1.4435 12.985 1.43289C12.4891 1.42227 11.9963 1.52339 11.5371 1.73004C11.0778 1.93668 10.6617 2.2445 10.3143 2.63462C9.62512 3.3937 9.23681 4.4226 9.23429 5.4963C9.23429 5.81741 9.26857 6.12908 9.30286 6.44075C7.84327 6.35032 6.41711 5.92369 5.11641 5.1884C3.81572 4.4531 2.6694 3.42547 1.75143 2.17184C1.43287 2.7903 1.25082 3.48265 1.22 4.19296C1.22765 4.86338 1.38108 5.522 1.66743 6.11359C1.95378 6.70518 2.36469 7.21249 2.86571 7.59297C2.28976 7.56925 1.72777 7.39094 1.22857 7.07353V7.13964C1.22857 9.0852 2.48857 10.7285 4.17714 11.1158C3.86 11.1913 3.54286 11.2385 3.19143 11.2574L2.54 11.1913C2.77483 11.9923 3.22872 12.6936 3.83946 13.1991C4.4502 13.7047 5.18789 13.9897 5.95143 14.0152C4.62784 15.1193 3.01716 15.7252 1.35714 15.7436L0.5 15.6869C2.19021 16.8733 4.15308 17.5025 6.15714 17.5002C12.9114 17.5002 16.6143 11.3141 16.5886 5.99686C16.6057 5.77963 16.6057 5.60963 16.5886 5.4113C17.3207 4.84715 17.9465 4.1319 18.4314 3.30518C17.7714 3.65463 17.06 3.87185 16.3314 3.96629C17.0966 3.46429 17.6603 2.66089 17.9086 1.71851" fill="black"/>
</g>
<defs>
<clipPath id="clip0_6796_3112">
<rect width="18" height="17.0001" fill="white" transform="translate(0.5 0.5)"/>
</clipPath>
</defs>
</svg>
