<svg width="18" height="18" viewBox="0 0 18 18" fill="none" xmlns="http://www.w3.org/2000/svg">
<path d="M2.25 0.75C1.84375 0.75 1.49219 0.898438 1.19531 1.19531C0.898438 1.49219 0.75 1.84375 0.75 2.25V15.75C0.75 16.1562 0.898438 16.5078 1.19531 16.8047C1.49219 17.1016 1.84375 17.25 2.25 17.25H15.75C16.1562 17.25 16.5078 17.1016 16.8047 16.8047C17.1016 16.5078 17.25 16.1562 17.25 15.75V2.25C17.25 1.84375 17.1016 1.49219 16.8047 1.19531C16.5078 0.898438 16.1562 0.75 15.75 0.75H2.25ZM2.25 2.25H15.75V15.75H11.8594V10.6875H13.8047L14.0859 8.4375H11.8594V6.98438C11.8594 6.60938 11.9219 6.34375 12.0469 6.1875C12.2188 5.98438 12.5234 5.88281 12.9609 5.88281H14.1797V3.84375C13.8047 3.79688 13.2188 3.77344 12.4219 3.77344C11.5312 3.77344 10.8203 4.03125 10.2891 4.54688C9.77344 5.0625 9.51562 5.79688 9.51562 6.75V8.4375H7.54688V10.6875H9.51562V15.75H2.25V2.25Z" fill="#1F2937"/>
</svg>
