<svg width="18" height="18" viewBox="0 0 18 18" fill="none" xmlns="http://www.w3.org/2000/svg">
<path d="M5.60156 0.75C4.72656 0.75 3.91406 0.96875 3.16406 1.40625C2.42969 1.84375 1.84375 2.4375 1.40625 3.1875C0.96875 3.92188 0.75 4.72656 0.75 5.60156V12.3984C0.75 13.2734 0.96875 14.0859 1.40625 14.8359C1.84375 15.5703 2.42969 16.1562 3.16406 16.5938C3.91406 17.0312 4.72656 17.25 5.60156 17.25H12.3984C13.2734 17.25 14.0781 17.0312 14.8125 16.5938C15.5625 16.1562 16.1562 15.5703 16.5938 14.8359C17.0312 14.0859 17.25 13.2734 17.25 12.3984V5.60156C17.25 4.72656 17.0312 3.92188 16.5938 3.1875C16.1562 2.4375 15.5625 1.84375 14.8125 1.40625C14.0781 0.96875 13.2734 0.75 12.3984 0.75H5.60156ZM5.60156 2.25H12.3984C13.0078 2.25 13.5703 2.39844 14.0859 2.69531C14.6016 2.99219 15.0078 3.39844 15.3047 3.91406C15.6016 4.42969 15.75 4.99219 15.75 5.60156V12.3984C15.75 13.0078 15.6016 13.5703 15.3047 14.0859C15.0078 14.6016 14.6016 15.0078 14.0859 15.3047C13.5703 15.6016 13.0078 15.75 12.3984 15.75H5.60156C4.99219 15.75 4.42969 15.6016 3.91406 15.3047C3.39844 15.0078 2.99219 14.6016 2.69531 14.0859C2.39844 13.5703 2.25 13.0078 2.25 12.3984V5.60156C2.25 4.99219 2.39844 4.42969 2.69531 3.91406C2.99219 3.39844 3.39844 2.99219 3.91406 2.69531C4.42969 2.39844 4.99219 2.25 5.60156 2.25ZM13.4297 3.89062C13.2422 3.89062 13.0781 3.96094 12.9375 4.10156C12.8125 4.22656 12.75 4.38281 12.75 4.57031C12.75 4.75781 12.8125 4.92188 12.9375 5.0625C13.0781 5.1875 13.2422 5.25 13.4297 5.25C13.6172 5.25 13.7734 5.1875 13.8984 5.0625C14.0391 4.92188 14.1094 4.75781 14.1094 4.57031C14.1094 4.38281 14.0391 4.22656 13.8984 4.10156C13.7734 3.96094 13.6172 3.89062 13.4297 3.89062ZM9 4.5C8.1875 4.5 7.4375 4.70312 6.75 5.10938C6.0625 5.51563 5.51562 6.0625 5.10938 6.75C4.70312 7.4375 4.5 8.1875 4.5 9C4.5 9.8125 4.70312 10.5625 5.10938 11.25C5.51562 11.9375 6.0625 12.4844 6.75 12.8906C7.4375 13.2969 8.1875 13.5 9 13.5C9.8125 13.5 10.5625 13.2969 11.25 12.8906C11.9375 12.4844 12.4844 11.9375 12.8906 11.25C13.2969 10.5625 13.5 9.8125 13.5 9C13.5 8.1875 13.2969 7.4375 12.8906 6.75C12.4844 6.0625 11.9375 5.51563 11.25 5.10938C10.5625 4.70312 9.8125 4.5 9 4.5ZM9 6C9.54688 6 10.0469 6.13281 10.5 6.39844C10.9688 6.66406 11.3359 7.03125 11.6016 7.5C11.8672 7.95312 12 8.45312 12 9C12 9.54688 11.8672 10.0547 11.6016 10.5234C11.3359 10.9766 10.9688 11.3359 10.5 11.6016C10.0469 11.8672 9.54688 12 9 12C8.45312 12 7.94531 11.8672 7.47656 11.6016C7.02344 11.3359 6.66406 10.9766 6.39844 10.5234C6.13281 10.0547 6 9.54688 6 9C6 8.45312 6.13281 7.95312 6.39844 7.5C6.66406 7.03125 7.02344 6.66406 7.47656 6.39844C7.94531 6.13281 8.45312 6 9 6Z" fill="black"/>
</svg>
